<?xml version="1.0" encoding="UTF-8" standalone="no"?>
<!DOCTYPE svg PUBLIC "-//W3C//DTD SVG 1.1//EN"
 "http://www.w3.org/Graphics/SVG/1.1/DTD/svg11.dtd">
<!-- Generated by graphviz version 2.40.1 (20161225.0304)
 -->
<!-- Title: dependencies Pages: 1 -->
<svg width="504pt" height="284pt"
 viewBox="0.00 0.00 504.00 284.00" xmlns="http://www.w3.org/2000/svg" xmlns:xlink="http://www.w3.org/1999/xlink">
<g id="graph0" class="graph" transform="scale(1 1) rotate(0) translate(4 280)">
<title>dependencies</title>
<polygon fill="#ffffff" stroke="transparent" points="-4,4 -4,-280 500,-280 500,4 -4,4"/>
<text text-anchor="start" x="227.0091" y="-42.4" font-family="sans-serif" font-weight="bold" font-size="14.00" fill="#000000">Legend</text>
<polygon fill="#ffffb3" stroke="transparent" points="14,-10 14,-30 34,-30 34,-10 14,-10"/>
<text text-anchor="start" x="37.629" y="-15.4" font-family="sans-serif" font-size="14.00" fill="#000000"> &#160;Declarations</text>
<polygon fill="#8dd3c7" stroke="transparent" points="127,-10 127,-30 147,-30 147,-10 127,-10"/>
<text text-anchor="start" x="150.7251" y="-15.4" font-family="sans-serif" font-size="14.00" fill="#000000"> &#160;Module</text>
<polygon fill="#80b1d3" stroke="transparent" points="213,-10 213,-30 233,-30 233,-10 213,-10"/>
<text text-anchor="start" x="236.7812" y="-15.4" font-family="sans-serif" font-size="14.00" fill="#000000"> &#160;Bootstrap</text>
<polygon fill="#fdb462" stroke="transparent" points="310,-10 310,-30 330,-30 330,-10 310,-10"/>
<text text-anchor="start" x="333.6732" y="-15.4" font-family="sans-serif" font-size="14.00" fill="#000000"> &#160;Providers</text>
<polygon fill="#fb8072" stroke="transparent" points="406,-10 406,-30 426,-30 426,-10 406,-10"/>
<text text-anchor="start" x="429.7258" y="-15.4" font-family="sans-serif" font-size="14.00" fill="#000000"> &#160;Exports</text>
<g id="clust1" class="cluster">
<title>cluster_AppModule</title>
<polygon fill="none" stroke="#000000" stroke-dasharray="1,5" points="97.5,-70 97.5,-268 284.5,-268 284.5,-70 97.5,-70"/>
</g>
<g id="clust2" class="cluster">
<title>cluster_AppModule_declarations</title>
<polygon fill="none" stroke="#000000" points="105.5,-78 105.5,-130 276.5,-130 276.5,-78 105.5,-78"/>
</g>
<g id="clust7" class="cluster">
<title>cluster_AppModule_bootstrap</title>
<polygon fill="none" stroke="#000000" points="145.5,-208 145.5,-260 233.5,-260 233.5,-208 145.5,-208"/>
</g>
<g id="clust9" class="cluster">
<title>cluster_PipesModule</title>
<polygon fill="none" stroke="#000000" stroke-dasharray="1,5" points="292.5,-70 292.5,-268 398.5,-268 398.5,-70 292.5,-70"/>
</g>
<g id="clust10" class="cluster">
<title>cluster_PipesModule_declarations</title>
<polygon fill="none" stroke="#000000" points="302.5,-78 302.5,-130 388.5,-130 388.5,-78 302.5,-78"/>
</g>
<g id="clust13" class="cluster">
<title>cluster_PipesModule_exports</title>
<polygon fill="none" stroke="#000000" points="300.5,-208 300.5,-260 390.5,-260 390.5,-208 300.5,-208"/>
</g>
<!-- HomePage -->
<g id="node1" class="node">
<title>HomePage</title>
<polygon fill="#ffffb3" stroke="#000000" points="268.4248,-122 190.5752,-122 190.5752,-86 268.4248,-86 268.4248,-122"/>
<text text-anchor="middle" x="229.5" y="-99.8" font-family="Times,serif" font-size="14.00" fill="#000000">HomePage</text>
</g>
<!-- AppModule -->
<g id="node3" class="node">
<title>AppModule</title>
<polygon fill="#8dd3c7" stroke="#000000" points="231.1571,-187 228.1571,-191 207.1571,-191 204.1571,-187 147.8429,-187 147.8429,-151 231.1571,-151 231.1571,-187"/>
<text text-anchor="middle" x="189.5" y="-164.8" font-family="Times,serif" font-size="14.00" fill="#000000">AppModule</text>
</g>
<!-- HomePage&#45;&gt;AppModule -->
<g id="edge1" class="edge">
<title>HomePage&#45;&gt;AppModule</title>
<path fill="none" stroke="#000000" d="M211.0582,-122.1061C211.0582,-122.1061 211.0582,-140.991 211.0582,-140.991"/>
<polygon fill="#000000" stroke="#000000" points="207.5583,-140.9909 211.0582,-150.991 214.5583,-140.991 207.5583,-140.9909"/>
</g>
<!-- MyApp -->
<g id="node2" class="node">
<title>MyApp</title>
<polygon fill="#ffffb3" stroke="#000000" points="173.0529,-122 113.9471,-122 113.9471,-86 173.0529,-86 173.0529,-122"/>
<text text-anchor="middle" x="143.5" y="-99.8" font-family="Times,serif" font-size="14.00" fill="#000000">MyApp</text>
</g>
<!-- MyApp&#45;&gt;AppModule -->
<g id="edge2" class="edge">
<title>MyApp&#45;&gt;AppModule</title>
<path fill="none" stroke="#000000" d="M160.4737,-122.1061C160.4737,-122.1061 160.4737,-140.991 160.4737,-140.991"/>
<polygon fill="#000000" stroke="#000000" points="156.9738,-140.9909 160.4737,-150.991 163.9738,-140.991 156.9738,-140.9909"/>
</g>
<!-- IonicApp  -->
<g id="node4" class="node">
<title>IonicApp </title>
<polygon fill="#80b1d3" stroke="#000000" points="225.8734,-252 153.1266,-252 153.1266,-216 225.8734,-216 225.8734,-252"/>
<text text-anchor="middle" x="189.5" y="-229.8" font-family="Times,serif" font-size="14.00" fill="#000000">IonicApp </text>
</g>
<!-- AppModule&#45;&gt;IonicApp  -->
<g id="edge3" class="edge">
<title>AppModule&#45;&gt;IonicApp </title>
<path fill="none" stroke="#000000" stroke-dasharray="1,5" d="M189.5,-187.1061C189.5,-187.1061 189.5,-205.991 189.5,-205.991"/>
<polygon fill="#000000" stroke="#000000" points="186.0001,-205.9909 189.5,-215.991 193.0001,-205.991 186.0001,-205.9909"/>
</g>
<!-- KeysPipe -->
<g id="node5" class="node">
<title>KeysPipe</title>
<polygon fill="#ffffb3" stroke="#000000" points="380.1545,-122 310.8455,-122 310.8455,-86 380.1545,-86 380.1545,-122"/>
<text text-anchor="middle" x="345.5" y="-99.8" font-family="Times,serif" font-size="14.00" fill="#000000">KeysPipe</text>
</g>
<!-- PipesModule -->
<g id="node6" class="node">
<title>PipesModule</title>
<polygon fill="#8dd3c7" stroke="#000000" points="390.3823,-187 387.3823,-191 366.3823,-191 363.3823,-187 300.6177,-187 300.6177,-151 390.3823,-151 390.3823,-187"/>
<text text-anchor="middle" x="345.5" y="-164.8" font-family="Times,serif" font-size="14.00" fill="#000000">PipesModule</text>
</g>
<!-- KeysPipe&#45;&gt;PipesModule -->
<g id="edge4" class="edge">
<title>KeysPipe&#45;&gt;PipesModule</title>
<path fill="none" stroke="#000000" d="M345.5,-122.1061C345.5,-122.1061 345.5,-140.991 345.5,-140.991"/>
<polygon fill="#000000" stroke="#000000" points="342.0001,-140.9909 345.5,-150.991 349.0001,-140.991 342.0001,-140.9909"/>
</g>
<!-- KeysPipe  -->
<g id="node7" class="node">
<title>KeysPipe </title>
<polygon fill="#fb8072" stroke="#000000" points="382.1538,-252 308.8462,-252 308.8462,-216 382.1538,-216 382.1538,-252"/>
<text text-anchor="middle" x="345.5" y="-229.8" font-family="Times,serif" font-size="14.00" fill="#000000">KeysPipe </text>
</g>
<!-- PipesModule&#45;&gt;KeysPipe  -->
<g id="edge5" class="edge">
<title>PipesModule&#45;&gt;KeysPipe </title>
<path fill="none" stroke="#000000" stroke-dasharray="5,2" d="M345.5,-187.1061C345.5,-187.1061 345.5,-205.991 345.5,-205.991"/>
<polygon fill="#000000" stroke="#000000" points="342.0001,-205.9909 345.5,-215.991 349.0001,-205.991 342.0001,-205.9909"/>
</g>
</g>
</svg>
